<svg width="179" height="48" viewBox="0 0 179 48" fill="none" xmlns="http://www.w3.org/2000/svg">
<path d="M66.9841 13.992C67.5061 14.208 67.9861 14.382 68.4481 14.592C70.2481 15.42 71.6221 16.698 72.0121 18.72C72.4801 21.12 71.5441 23.016 69.6121 24.438C68.2606 25.4167 66.6308 25.9361 64.9621 25.92C60.1261 25.968 55.2901 25.92 50.4481 25.92C50.4061 25.92 50.3641 25.92 50.2861 25.92V2.796C50.3669 2.77569 50.4492 2.76165 50.5321 2.754C54.8521 2.754 59.1781 2.754 63.4981 2.754C65.1631 2.76076 66.795 3.21904 68.2201 4.08C68.9618 4.46957 69.5984 5.0325 70.0758 5.72091C70.5532 6.40932 70.8572 7.20285 70.9621 8.034C71.0525 8.74877 70.9766 9.47475 70.7403 10.1554C70.5041 10.836 70.1139 11.4529 69.6001 11.958C68.8955 12.6053 68.15 13.2065 67.3681 13.758L66.9841 13.992ZM55.8421 15.996V22.176H56.1361C58.2421 22.176 60.3361 22.176 62.4541 22.176C62.9387 22.1712 63.4214 22.1148 63.8941 22.008C64.4379 21.9365 64.9509 21.7143 65.375 21.3665C65.7991 21.0187 66.1175 20.5592 66.2941 20.04C66.4473 19.627 66.5042 19.1845 66.4607 18.7462C66.4171 18.3078 66.2743 17.8852 66.0429 17.5103C65.8115 17.1355 65.4977 16.8184 65.1254 16.583C64.7531 16.3476 64.332 16.2002 63.8941 16.152C62.8766 16.0107 61.8489 15.9565 60.8221 15.99C59.1961 15.978 57.5401 15.996 55.8421 15.996ZM55.8421 12.396C55.8949 12.4129 55.9492 12.4249 56.0041 12.432C58.0081 12.432 60.0061 12.468 62.0041 12.432C62.6315 12.3845 63.2433 12.2132 63.8041 11.928C64.2578 11.6854 64.6348 11.3211 64.8928 10.876C65.1508 10.4309 65.2796 9.92266 65.2646 9.40842C65.2497 8.89417 65.0916 8.39429 64.8081 7.96494C64.5247 7.5356 64.1271 7.19382 63.6601 6.978C63.1377 6.74092 62.5766 6.60065 62.0041 6.564C60.0001 6.504 58.0021 6.528 56.0041 6.522C55.9441 6.52587 55.8853 6.54008 55.8301 6.564L55.8421 12.396Z" fill="black"/>
<path d="M98.6039 25.938H92.9999V20.538H82.3139V25.938H76.6799V25.446C76.6799 21.082 76.6799 16.72 76.6799 12.36C76.7095 9.94142 77.5976 7.61206 79.1857 5.78768C80.7738 3.96329 82.9585 2.76263 85.3499 2.4C87.4545 2.05403 89.61 2.18734 91.6559 2.79C95.2139 3.912 97.2719 6.456 98.2139 9.954C98.4577 10.8906 98.5827 11.8542 98.5859 12.822C98.6279 17.022 98.5859 21.18 98.5859 25.362L98.6039 25.938ZM92.9519 16.392C92.9519 14.742 93.0419 13.134 92.9519 11.538C92.926 10.7851 92.7314 10.0475 92.3825 9.37983C92.0336 8.71211 91.5392 8.13122 90.9359 7.68C90.2202 7.14013 89.3803 6.78892 88.4933 6.65866C87.6063 6.52841 86.7008 6.6233 85.8602 6.9346C85.0195 7.2459 84.2705 7.76362 83.6823 8.44013C83.0941 9.11664 82.6854 9.93021 82.4939 10.806C82.1039 12.606 82.3319 14.46 82.3079 16.284C82.3079 16.284 82.3079 16.332 82.3619 16.368L92.9519 16.392Z" fill="black"/>
<path d="M151.29 25.938H145.752V22.23L145.638 22.176C145.5 22.35 145.344 22.518 145.212 22.704C144.164 24.2648 142.631 25.4371 140.85 26.04C135.894 27.696 131.31 25.182 129.924 20.04C129.567 18.6688 129.392 17.2568 129.402 15.84C129.402 11.64 129.402 7.386 129.402 3.162V2.77199H135.216V3.288C135.216 7.818 135.216 12.348 135.216 16.878C135.234 18.2149 135.773 19.4921 136.717 20.4388C137.661 21.3855 138.937 21.9272 140.274 21.9491C141.61 21.9709 142.903 21.4712 143.878 20.5559C144.852 19.6406 145.432 18.3816 145.494 17.046C145.524 12.468 145.494 7.896 145.494 3.31799V2.75999H151.284L151.29 25.938Z" fill="black"/>
<path d="M155.748 24.132L157.41 20.346C158.766 20.844 160.062 21.396 161.406 21.792C163.233 22.3842 165.176 22.5262 167.07 22.206C167.664 22.0957 168.234 21.8782 168.75 21.564C169.053 21.3934 169.309 21.1491 169.493 20.8536C169.677 20.5582 169.783 20.2211 169.802 19.8736C169.821 19.5262 169.752 19.1795 169.602 18.8656C169.452 18.5518 169.225 18.2809 168.942 18.078C168.055 17.4168 167.029 16.9674 165.942 16.764C164.4 16.398 162.834 16.092 161.304 15.66C160.492 15.4149 159.712 15.0725 158.982 14.64C156.162 13.038 155.244 10.44 156.384 7.39199C156.786 6.35388 157.42 5.42184 158.239 4.66766C159.058 3.91349 160.039 3.35731 161.106 3.04199C164.36 1.95514 167.869 1.89856 171.156 2.87999C172.158 3.14999 173.124 3.55799 174.156 3.91799L172.506 8.00399C172.002 7.79999 171.522 7.60199 171.03 7.40399C169.14 6.70799 167.22 6.13199 165.18 6.29399C164.478 6.37838 163.79 6.55594 163.134 6.82199C162.537 7.0683 162.055 7.53121 161.784 8.11799C161.518 8.55074 161.431 9.07064 161.543 9.56634C161.655 10.062 161.957 10.4941 162.384 10.77C163.235 11.354 164.193 11.7619 165.204 11.97C166.788 12.366 168.396 12.684 170.004 13.08C170.663 13.2538 171.303 13.4888 171.918 13.782C174.846 15.192 175.992 17.802 175.062 20.91C174.384 23.178 172.8 24.576 170.67 25.434C168.993 26.0692 167.214 26.3945 165.42 26.394C162.346 26.4894 159.294 25.8431 156.522 24.51C156.318 24.414 156.12 24.3 155.922 24.192C155.863 24.176 155.805 24.156 155.748 24.132Z" fill="black"/>
<path d="M122.16 19.452L125.592 22.548C125.076 22.986 124.608 23.43 124.098 23.814C121.574 25.687 118.475 26.6197 115.336 26.451C112.198 26.2823 109.217 25.0228 106.908 22.89C105.649 21.7266 104.662 20.2989 104.019 18.7093C103.377 17.1198 103.094 15.4077 103.19 13.6958C103.287 11.984 103.762 10.3147 104.58 8.80787C105.398 7.301 106.539 5.9938 107.922 4.97999C110.401 3.1125 113.448 2.15616 116.549 2.272C119.651 2.38784 122.617 3.56878 124.95 5.61599C125.154 5.79599 125.346 5.98799 125.55 6.21599L122.106 9.29399C121.28 8.34522 120.227 7.62098 119.046 7.18874C117.865 6.7565 116.593 6.63033 115.35 6.82199C113.462 7.07742 111.75 8.06694 110.586 9.57599C109.43 11.0534 108.846 12.8977 108.94 14.7711C109.033 16.6444 109.799 18.4212 111.096 19.776C111.827 20.512 112.702 21.0902 113.665 21.4747C114.629 21.8593 115.661 22.042 116.698 22.0116C117.735 21.9812 118.755 21.7384 119.695 21.2982C120.634 20.8579 121.473 20.2295 122.16 19.452Z" fill="black"/>
<path d="M56.2619 44.496C55.4944 44.5082 54.732 44.3696 54.0179 44.088C53.3626 43.8164 52.7733 43.4072 52.2899 42.888C51.8003 42.3705 51.4225 41.7578 51.1799 41.088C50.9104 40.3171 50.7804 39.5045 50.7959 38.688C50.7822 37.8717 50.9121 37.0593 51.1799 36.288C51.4217 35.6164 51.8019 35.0032 52.2959 34.488C52.7763 33.9896 53.3571 33.5989 53.9999 33.342C54.7129 33.0647 55.473 32.9282 56.2379 32.94C57.0755 32.9259 57.9069 33.0852 58.6799 33.408C59.3717 33.7032 59.9798 34.1649 60.4499 34.752C60.9141 35.3448 61.2105 36.0514 61.3079 36.798H59.9999C59.9052 36.2848 59.6823 35.8039 59.3519 35.4C59.0089 34.9878 58.5729 34.6629 58.0799 34.452C57.5122 34.2065 56.8983 34.0858 56.2799 34.098C55.5145 34.0797 54.7588 34.2727 54.0959 34.656C53.4748 35.0333 52.9798 35.5868 52.6739 36.246C52.3219 37.0213 52.1515 37.8668 52.1759 38.718C52.1671 39.3733 52.2644 40.0257 52.4639 40.65C52.6315 41.187 52.9118 41.682 53.2859 42.102C53.6412 42.5013 54.0822 42.8151 54.5759 43.02C55.7004 43.46 56.9494 43.46 58.0739 43.02C58.5736 42.8091 59.0143 42.4796 59.3579 42.06C59.6976 41.6397 59.9192 41.1364 59.9999 40.602H61.3499C61.2695 41.3503 60.9852 42.0622 60.5279 42.66C60.0553 43.2615 59.4352 43.7306 58.7279 44.022C57.9486 44.3522 57.1082 44.5137 56.2619 44.496Z" fill="black"/>
<path d="M66.4619 44.496C65.9948 44.5012 65.5322 44.405 65.1059 44.214C64.6966 44.02 64.3343 43.7396 64.0439 43.392C63.7286 43.0021 63.4941 42.5534 63.3539 42.072C63.183 41.4876 63.1021 40.8807 63.1139 40.272C63.0911 39.4903 63.2364 38.7128 63.5399 37.992C63.7918 37.4074 64.2088 36.909 64.7399 36.558C65.2616 36.2281 65.8688 36.0591 66.4859 36.072C66.926 36.0649 67.3635 36.1402 67.7759 36.294C68.146 36.4325 68.4817 36.6494 68.7599 36.93C69.0286 37.2062 69.2334 37.538 69.3599 37.902H69.4379L69.4859 36.21H70.6859V44.346H69.4199V42.642H69.3419C69.1384 43.1858 68.769 43.6518 68.2859 43.974C67.7466 44.3327 67.1093 44.5152 66.4619 44.496ZM66.8759 43.446C67.3652 43.4624 67.8475 43.3261 68.2559 43.056C68.6221 42.8068 68.9161 42.4653 69.1079 42.066C69.3038 41.6664 69.4044 41.227 69.4019 40.782V39.786C69.4038 39.3392 69.3032 38.8979 69.1079 38.496C68.9179 38.0939 68.6237 37.7499 68.2559 37.5C67.845 37.2366 67.3636 37.1047 66.8759 37.122C66.4116 37.1073 65.9542 37.2367 65.5663 37.4924C65.1785 37.7481 64.8794 38.1175 64.7099 38.55C64.2937 39.6665 64.2937 40.8955 64.7099 42.012C64.8849 42.4462 65.1858 42.8182 65.5739 43.08C65.9618 43.3288 66.4151 43.4563 66.8759 43.446Z" fill="black"/>
<path d="M73.416 44.358V33.06H74.67V44.358H73.416Z" fill="black"/>
<path d="M77.3999 44.358V33.06H78.6539V44.358H77.3999Z" fill="black"/>
<path d="M90.294 44.496C89.5245 44.5089 88.76 44.3702 88.044 44.088C87.3887 43.8164 86.7994 43.4072 86.316 42.888C85.8283 42.3702 85.4525 41.7575 85.212 41.088C84.9405 40.3175 84.8084 39.5048 84.822 38.688C84.81 37.8713 84.9421 37.0589 85.212 36.288C85.4538 35.6164 85.834 35.0032 86.328 34.488C86.8118 33.9782 87.4017 33.5808 88.056 33.324C88.7689 33.0462 89.529 32.9097 90.294 32.922C91.1296 32.9078 91.9591 33.0672 92.73 33.39C93.4218 33.6852 94.0299 34.1469 94.5 34.734C94.9642 35.3268 95.2606 36.0334 95.358 36.78H94.014C93.9146 36.2672 93.6899 35.787 93.36 35.382C93.017 34.9698 92.581 34.6449 92.088 34.434C91.5203 34.1883 90.9064 34.0676 90.288 34.08C89.5224 34.0607 88.7665 34.2539 88.104 34.638C87.4797 35.0133 86.9823 35.5671 86.676 36.228C86.3268 37.0042 86.1566 37.8491 86.178 38.7C86.1692 39.3553 86.2665 40.0077 86.466 40.632C86.6385 41.1668 86.9182 41.6609 87.288 42.084C87.6445 42.4847 88.0877 42.7987 88.584 43.002C89.7067 43.4404 90.9533 43.4404 92.076 43.002C92.5757 42.7911 93.0164 42.4616 93.36 42.042C93.6992 41.6207 93.9225 41.1181 94.008 40.584H95.352C95.2744 41.333 94.9897 42.0456 94.53 42.642C94.0663 43.24 93.4568 43.7089 92.76 44.004C91.9817 44.3393 91.1414 44.5069 90.294 44.496Z" fill="black"/>
<path d="M100.83 44.496C100.131 44.5168 99.4408 44.3401 98.838 43.986C98.2809 43.6379 97.8417 43.1297 97.578 42.528C97.2725 41.837 97.1229 41.0873 97.14 40.332C97.1196 39.5609 97.2691 38.7948 97.578 38.088C97.8433 37.4929 98.2719 36.9852 98.814 36.624C99.405 36.2617 100.089 36.0802 100.782 36.102C101.504 36.0744 102.217 36.2715 102.822 36.666C103.375 37.0429 103.795 37.5846 104.022 38.214C104.273 38.9545 104.365 39.7395 104.292 40.518H98.388C98.3804 41.0923 98.4907 41.662 98.712 42.192C98.89 42.6002 99.1869 42.9452 99.564 43.182C99.9566 43.4052 100.403 43.5173 100.854 43.506C101.38 43.5304 101.899 43.3737 102.324 43.062C102.708 42.7665 102.969 42.3389 103.056 41.862H104.256C104.194 42.3795 103.986 42.8687 103.656 43.272C103.339 43.6677 102.926 43.9755 102.456 44.166C101.941 44.383 101.389 44.4952 100.83 44.496ZM98.4 39.786L98.274 39.6H103.2L103.062 39.816C103.093 39.2822 103 38.7484 102.792 38.256C102.628 37.8805 102.349 37.5672 101.994 37.362C101.626 37.163 101.212 37.0637 100.794 37.074C100.36 37.0659 99.931 37.1736 99.552 37.386C99.1931 37.6029 98.9054 37.9199 98.724 38.298C98.5112 38.7652 98.4007 39.2726 98.4 39.786Z" fill="black"/>
<path d="M106.44 44.358V36.222H107.64L107.682 37.914H107.778C107.998 37.3467 108.401 36.8693 108.924 36.558C109.434 36.2548 110.017 36.0971 110.61 36.102C111.018 36.0942 111.424 36.1571 111.81 36.288C112.163 36.4081 112.481 36.6143 112.734 36.888C113.008 37.2016 113.212 37.5697 113.334 37.968C113.489 38.4874 113.562 39.028 113.55 39.57V44.37H112.29V39.828C112.306 39.3187 112.231 38.8107 112.068 38.328C111.945 37.9675 111.704 37.659 111.384 37.452C111.02 37.2417 110.603 37.1416 110.184 37.164C109.713 37.1546 109.25 37.284 108.852 37.536C108.471 37.7826 108.166 38.1293 107.97 38.538C107.757 38.9855 107.65 39.4763 107.658 39.972V44.37L106.44 44.358Z" fill="black"/>
<path d="M118.152 44.358C117.826 44.3733 117.5 44.3159 117.198 44.19C116.975 44.0831 116.799 43.8971 116.706 43.668C116.598 43.3953 116.547 43.1033 116.556 42.81V37.26H114.978V36.222H116.556V33.822L117.81 33.648V36.252H119.706V37.29H117.81V42.624C117.793 42.7294 117.798 42.8371 117.825 42.9404C117.852 43.0437 117.9 43.1403 117.966 43.224C118.142 43.3426 118.356 43.3918 118.566 43.362H119.73V44.418L118.152 44.358Z" fill="black"/>
<path d="M124.614 44.496C123.915 44.5169 123.225 44.3401 122.622 43.986C122.065 43.6379 121.626 43.1297 121.362 42.528C121.061 41.8357 120.914 41.0866 120.93 40.332C120.91 39.5616 121.058 38.7961 121.362 38.088C121.627 37.4929 122.056 36.9853 122.598 36.624C123.191 36.2609 123.877 36.0794 124.572 36.102C125.292 36.0737 126.003 36.2708 126.606 36.666C127.161 37.0411 127.581 37.5834 127.806 38.214C128.062 38.9534 128.156 39.7391 128.082 40.518H122.178C122.164 41.0928 122.275 41.6638 122.502 42.192C122.678 42.6014 122.975 42.9469 123.354 43.182C123.744 43.4053 124.188 43.5174 124.638 43.506C125.166 43.5304 125.687 43.3737 126.114 43.062C126.497 42.7663 126.756 42.3384 126.84 41.862H128.04C127.973 42.3781 127.765 42.8659 127.44 43.272C127.122 43.6666 126.709 43.9741 126.24 44.166C125.725 44.383 125.172 44.4952 124.614 44.496ZM122.166 39.786L122.046 39.6H126.972L126.834 39.816C126.86 39.2819 126.766 38.7487 126.558 38.256C126.396 37.8791 126.116 37.5652 125.76 37.362C125.392 37.163 124.978 37.0637 124.56 37.074C124.125 37.0636 123.696 37.1714 123.318 37.386C122.956 37.5995 122.668 37.9174 122.49 38.298C122.277 38.7652 122.167 39.2726 122.166 39.786Z" fill="black"/>
<path d="M130.2 44.358V36.222H131.316L131.394 37.728H131.454C131.613 37.2309 131.942 36.8059 132.384 36.528C132.829 36.2469 133.346 36.101 133.872 36.108H134.136H134.37V37.308H134.136H133.872C133.445 37.2985 133.022 37.389 132.636 37.572C132.293 37.7368 132.006 37.9973 131.808 38.322C131.591 38.6868 131.466 39.0984 131.442 39.522V44.37L130.2 44.358Z" fill="black"/>
<path d="M138.792 44.514C138.174 44.5306 137.56 44.4139 136.992 44.172C136.528 43.974 136.13 43.6471 135.846 43.23C135.578 42.8093 135.44 42.3187 135.45 41.82H136.704C136.688 42.0724 136.734 42.325 136.838 42.5553C136.943 42.7855 137.103 42.9864 137.304 43.14C137.755 43.4436 138.291 43.5931 138.834 43.566C139.341 43.5998 139.846 43.4761 140.28 43.212C140.44 43.0981 140.57 42.9466 140.658 42.7708C140.746 42.5951 140.789 42.4004 140.784 42.204C140.802 41.9309 140.725 41.6599 140.568 41.436C140.389 41.2354 140.159 41.088 139.902 41.01C139.511 40.8862 139.109 40.7979 138.702 40.746C138.128 40.6771 137.563 40.5484 137.016 40.362C136.618 40.233 136.268 39.9861 136.014 39.654C135.773 39.3019 135.655 38.8801 135.678 38.454C135.669 38.0076 135.803 37.5701 136.062 37.206C136.343 36.8359 136.718 36.5479 137.148 36.372C138.207 35.9563 139.383 35.9563 140.442 36.372C140.871 36.5612 141.238 36.8693 141.498 37.26C141.746 37.6621 141.877 38.1255 141.876 38.598H140.676C140.679 38.2711 140.583 37.951 140.4 37.68C140.24 37.4507 140.014 37.275 139.752 37.176C139.437 37.061 139.103 37.006 138.768 37.014C138.292 36.9842 137.818 37.1083 137.418 37.368C137.267 37.4739 137.144 37.6151 137.061 37.7793C136.977 37.9435 136.935 38.1257 136.938 38.31C136.926 38.5723 137.009 38.8303 137.172 39.036C137.365 39.2396 137.613 39.3833 137.886 39.45C138.29 39.5693 138.704 39.6555 139.122 39.708C139.527 39.7615 139.928 39.8437 140.322 39.954C140.652 40.0409 140.965 40.1851 141.246 40.38C141.502 40.5516 141.709 40.7875 141.846 41.064C141.983 41.3841 142.048 41.7301 142.038 42.078C142.056 42.4295 141.983 42.7797 141.826 43.0949C141.67 43.4102 141.435 43.6798 141.144 43.878C140.445 44.3289 139.623 44.5512 138.792 44.514Z" fill="black"/>
<path d="M148.416 44.358V33.06H149.736V43.524L149.424 43.152H155.316V44.352L148.416 44.358Z" fill="black"/>
<path d="M157.284 44.358V33.06H158.598V43.524L158.286 43.152H164.178V44.352L157.284 44.358Z" fill="black"/>
<path d="M170.286 44.496C169.516 44.5089 168.752 44.3702 168.036 44.088C167.381 43.8164 166.791 43.4072 166.308 42.888C165.818 42.3705 165.441 41.7578 165.198 41.088C164.928 40.3171 164.798 39.5044 164.814 38.688C164.8 37.8717 164.93 37.0593 165.198 36.288C165.44 35.6164 165.82 35.0032 166.314 34.488C166.8 33.9802 167.389 33.5832 168.042 33.324C168.757 33.0462 169.519 32.9097 170.286 32.922C171.122 32.9078 171.951 33.0672 172.722 33.39C173.414 33.6852 174.022 34.1469 174.492 34.734C174.956 35.3268 175.253 36.0334 175.35 36.78H174C173.905 36.2668 173.682 35.7859 173.352 35.382C173.009 34.9698 172.573 34.6449 172.08 34.434C171.512 34.1883 170.898 34.0676 170.28 34.08C169.513 34.0624 168.755 34.2554 168.09 34.638C167.469 35.0153 166.974 35.5688 166.668 36.228C166.319 37.0042 166.149 37.8491 166.17 38.7C166.161 39.3553 166.258 40.0077 166.458 40.632C166.628 41.1679 166.908 41.6624 167.28 42.084C167.642 42.4936 168.094 42.8139 168.6 43.02C169.724 43.46 170.973 43.46 172.098 43.02C172.598 42.8091 173.038 42.4796 173.382 42.06C173.722 41.6397 173.943 41.1364 174.024 40.602H175.374C175.296 41.351 175.012 42.0636 174.552 42.66C174.079 43.2615 173.459 43.7306 172.752 44.022C171.973 44.3522 171.132 44.5137 170.286 44.496Z" fill="black"/>
<path d="M15.438 24.678C14.9251 24.565 14.4063 24.4808 13.884 24.426C13.5085 24.4158 13.14 24.3216 12.8056 24.1503C12.4713 23.979 12.1796 23.7349 11.952 23.436C11.5838 22.9467 11.2452 22.4358 10.938 21.906C10.476 21.126 10.038 20.334 9.552 19.506H10.026C13.596 19.506 17.16 19.506 20.73 19.506C20.8553 19.4982 20.9804 19.5241 21.0923 19.5811C21.2041 19.6381 21.2986 19.724 21.366 19.83C21.7562 20.3608 22.2659 20.7924 22.8537 21.0899C23.4416 21.3873 24.0912 21.5423 24.75 21.5423C25.4088 21.5423 26.0584 21.3873 26.6463 21.0899C27.2341 20.7924 27.7438 20.3608 28.134 19.83C28.2009 19.7139 28.2983 19.6183 28.4158 19.5538C28.5332 19.4893 28.6661 19.4582 28.8 19.464C30.87 19.464 32.94 19.464 35.01 19.464H35.508C35.114 21.1988 34.2457 22.79 33 24.06C33.402 24.396 33.774 24.66 34.128 25.002C36.0817 26.6303 37.385 28.9068 37.8 31.416C38.0632 32.9746 37.9513 34.5735 37.4734 36.0802C36.9955 37.5869 36.1654 38.958 35.052 40.08C32.9358 42.3353 30.1234 43.8144 27.066 44.28C23.9823 44.8838 20.7858 44.4623 17.964 43.08C14.802 41.508 12.564 39.102 11.682 35.628C10.884 32.484 11.64 29.628 13.482 27.018C13.956 26.346 14.538 25.74 15.066 25.104L15.438 24.678ZM30.06 32.88C30.0175 32.4768 29.9534 32.0763 29.868 31.68C29.5207 30.3842 28.6906 29.2706 27.548 28.5677C26.4055 27.8647 25.0372 27.6258 23.724 27.9C23.0361 28.0223 22.3808 28.2848 21.7987 28.6711C21.2165 29.0575 20.7201 29.5594 20.3403 30.1458C19.9604 30.7322 19.7053 31.3904 19.5906 32.0796C19.476 32.7688 19.5044 33.4742 19.674 34.152C20.0204 35.3662 20.7928 36.4148 21.8496 37.1058C22.9064 37.7967 24.1768 38.0837 25.428 37.914C28.2 37.512 30 35.484 30.06 32.88Z" fill="#E96012"/>
<path d="M3.18593 7.54199H24.9719C26.9798 7.48432 28.9702 7.92984 30.7619 8.83799C31.9463 9.45963 32.9841 10.3273 33.8058 11.3828C34.6274 12.4383 35.2139 13.6573 35.5259 14.958C35.5259 15.048 35.5559 15.144 35.5859 15.312H35.1779C32.9339 15.312 30.6899 15.312 28.4399 15.312C28.3256 15.3184 28.2114 15.2972 28.107 15.2502C28.0025 15.2032 27.911 15.1318 27.8399 15.042C27.4461 14.606 26.9653 14.2574 26.4284 14.0188C25.8914 13.7803 25.3105 13.657 24.7229 13.657C24.1354 13.657 23.5544 13.7803 23.0175 14.0188C22.4806 14.2574 21.9997 14.606 21.6059 15.042C21.4642 15.1904 21.2709 15.2785 21.0659 15.288C17.8659 15.288 14.6659 15.288 11.4659 15.288C10.4856 15.3047 9.50902 15.1628 8.57393 14.868C7.68868 14.6053 6.93071 14.0267 6.44393 13.242C5.33393 11.394 4.25993 9.51599 3.17993 7.64999C3.17993 7.67999 3.18593 7.61999 3.18593 7.54199Z" fill="black"/>
<path d="M42.8221 14.472V20.472C42.8219 20.876 42.6958 21.2699 42.4614 21.5989C42.227 21.928 41.8959 22.1758 41.5141 22.308L38.3521 23.4C38.0881 23.076 37.8061 22.764 37.5121 22.458C37.3482 22.2902 37.2357 22.079 37.1879 21.8494C37.1401 21.6198 37.1589 21.3813 37.2421 21.162C37.7466 19.8649 38.007 18.4857 38.0101 17.094V17.04C38.0104 16.6953 37.9924 16.3508 37.9561 16.008C37.3981 9.74399 31.7401 4.81199 24.8641 4.81199C23.0653 4.81041 21.283 5.15465 19.6141 5.82599H16.4401C16.3843 5.82786 16.3295 5.81114 16.2842 5.77845C16.2389 5.74577 16.2058 5.69897 16.19 5.6454C16.1742 5.59184 16.1766 5.53455 16.1969 5.48253C16.2172 5.43051 16.2542 5.3867 16.3021 5.35799C18.8521 3.70769 21.8268 2.83425 24.8641 2.84399C27.7877 2.80492 30.66 3.61299 33.1344 5.17064C35.6088 6.7283 37.5793 8.96892 38.8081 11.622L41.5621 12.648C41.9335 12.7867 42.2534 13.0359 42.4787 13.362C42.704 13.6882 42.8239 14.0756 42.8221 14.472Z" fill="black"/>
</svg>
